<svg width="1584" height="396" viewBox="0 0 1584 396" fill="none" xmlns="http://www.w3.org/2000/svg">
<rect width="1584" height="396" fill="#F5F5F5"/>
<g id="Awesome banner" clip-path="url(#clip0_0_1)">
<rect width="1584" height="396" fill="url(#paint0_linear_0_1)"/>
<ellipse id="Ellipse 2" cx="323" cy="64" rx="285" ry="288" fill="url(#paint1_linear_0_1)" fill-opacity="0.1"/>
<g id="copyright">
<path d="M75.95 334.52L72.30 334.52L72.30 311.16L77.20 311.16L83.70 330.04Q83.60 329.02 83.50 327.62Q83.41 326.23 83.33 324.79Q83.25 323.35 83.25 322.23L83.25 311.16L86.90 311.16L86.90 334.52L82 334.52L75.57 315.64Q75.63 316.57 75.73 317.88Q75.82 319.19 75.89 320.57Q75.95 321.94 75.95 323.10L75.95 334.52M98.80 334.84Q96.46 334.84 94.67 333.96Q92.88 333.08 91.89 331.53Q90.90 329.98 90.90 327.93Q90.90 325.78 92.13 324.18Q93.36 322.58 95.34 322.17L95.34 322.10Q93.65 321.75 92.61 320.38Q91.57 319 91.57 317.11Q91.57 315.26 92.48 313.85Q93.39 312.44 95.02 311.64Q96.66 310.84 98.80 310.84Q100.94 310.84 102.59 311.64Q104.24 312.44 105.15 313.85Q106.06 315.26 106.06 317.11Q106.06 319 105.01 320.38Q103.95 321.75 102.26 322.10L102.26 322.17Q104.24 322.58 105.47 324.18Q106.70 325.78 106.70 327.93Q106.70 329.98 105.71 331.53Q104.72 333.08 102.93 333.96Q101.14 334.84 98.80 334.84M98.80 320.73Q100.30 320.73 101.23 319.82Q102.16 318.90 102.16 317.46Q102.16 315.99 101.23 315.08Q100.30 314.17 98.80 314.17Q97.30 314.17 96.37 315.08Q95.44 315.99 95.44 317.46Q95.44 318.90 96.37 319.82Q97.30 320.73 98.80 320.73M98.80 331.45Q100.56 331.45 101.68 330.42Q102.80 329.40 102.80 327.74Q102.80 326.04 101.68 325Q100.56 323.96 98.80 323.96Q97.04 323.96 95.92 325Q94.80 326.04 94.80 327.74Q94.80 329.40 95.92 330.42Q97.04 331.45 98.80 331.45M114.35 334.52L110.70 334.52L110.70 311.16L115.60 311.16L122.10 330.04Q122 329.02 121.90 327.62Q121.81 326.23 121.73 324.79Q121.65 323.35 121.65 322.23L121.65 311.16L125.30 311.16L125.30 334.52L120.40 334.52L113.97 315.64Q114.03 316.57 114.13 317.88Q114.22 319.19 114.29 320.57Q114.35 321.94 114.35 323.10" fill="white" fill-opacity="0.9"/>
<path d="M161.48 325.24L151.24 325.24L151.24 322.68L161.48 322.68" fill="white" fill-opacity="0.9"/>
<path d="M195.02 334.84Q191.82 334.84 189.96 333.05Q188.11 331.26 188.11 328.12L188.11 317.56Q188.11 314.42 189.96 312.63Q191.82 310.84 195.02 310.84Q198.15 310.84 200.01 312.65Q201.87 314.46 201.87 317.56L198.99 317.56Q198.99 315.58 197.95 314.50Q196.91 313.43 195.02 313.43Q193.13 313.43 192.06 314.50Q190.99 315.58 190.99 317.56L190.99 328.12Q190.99 330.10 192.06 331.18Q193.13 332.25 195.02 332.25Q196.91 332.25 197.95 331.18Q198.99 330.10 198.99 328.12L201.87 328.12Q201.87 331.22 200.01 333.03Q198.15 334.84 195.02 334.84" fill="white" fill-opacity="0.9"/>
<path d="M213.96 334.84Q210.83 334.84 209 333.02Q207.18 331.19 207.18 327.80L207.18 317.88Q207.18 314.49 209 312.66Q210.83 310.84 213.96 310.84Q217.10 310.84 218.92 312.66Q220.75 314.49 220.75 317.85L220.75 327.80Q220.75 331.19 218.92 333.02Q217.10 334.84 213.96 334.84M213.96 332.25Q215.85 332.25 216.86 331.18Q217.87 330.10 217.87 328.12L217.87 317.56Q217.87 315.58 216.86 314.50Q215.85 313.43 213.96 313.43Q212.11 313.43 211.08 314.50Q210.06 315.58 210.06 317.56L210.06 328.12Q210.06 330.10 211.08 331.18Q212.11 332.25 213.96 332.25" fill="white" fill-opacity="0.9"/>
<path d="M228.65 334.52L225.87 334.52L225.87 311.16L230.12 311.16L233.10 321.27L236.20 311.16L240.46 311.16L240.46 334.52L237.67 334.52L237.67 323.48Q237.67 321.91 237.72 319.88Q237.77 317.85 237.87 315.77Q237.96 313.69 238.09 312.02L234.31 324.09L231.82 324.09L228.20 312.31Q228.46 314.68 228.55 317.50Q228.65 320.31 228.65 323.48" fill="white" fill-opacity="0.9"/>
<path d="M247.85 334.52L245.07 334.52L245.07 311.16L249.32 311.16L252.30 321.27L255.40 311.16L259.66 311.16L259.66 334.52L256.87 334.52L256.87 323.48Q256.87 321.91 256.92 319.88Q256.97 317.85 257.07 315.77Q257.16 313.69 257.29 312.02L253.51 324.09L251.02 324.09L247.40 312.31Q247.66 314.68 247.75 317.50Q247.85 320.31 247.85 323.48" fill="white" fill-opacity="0.9"/>
<path d="M271.56 334.84Q268.30 334.84 266.57 333.03Q264.84 331.22 264.84 328.12L264.84 311.16L267.72 311.16L267.72 328.12Q267.72 330.04 268.67 331.16Q269.61 332.28 271.56 332.28Q273.48 332.28 274.44 331.16Q275.40 330.04 275.40 328.12L275.40 311.16L278.28 311.16L278.28 328.12Q278.28 331.26 276.57 333.05Q274.86 334.84 271.56 334.84" fill="white" fill-opacity="0.9"/>
<path d="M286.83 334.52L284.04 334.52L284.04 311.16L287.88 311.16L295.02 331.16Q294.95 330.36 294.87 329.19Q294.79 328.02 294.75 326.73Q294.70 325.43 294.70 324.28L294.70 311.16L297.48 311.16L297.48 334.52L293.64 334.52L286.54 314.52Q286.60 315.29 286.67 316.46Q286.73 317.62 286.78 318.92Q286.83 320.22 286.83 321.40" fill="white" fill-opacity="0.9"/>
<path d="M316.20 334.52L303.72 334.52L303.72 331.90L308.49 331.90L308.49 313.78L303.72 313.78L303.72 311.16L316.20 311.16L316.20 313.78L311.43 313.78L311.43 331.90L316.20 331.90" fill="white" fill-opacity="0.9"/>
<path d="M330.60 334.52L327.72 334.52L327.72 313.78L321.32 313.78L321.32 311.16L337 311.16L337 313.78L330.60 313.78" fill="white" fill-opacity="0.9"/>
<path d="M349.80 334.52L346.92 334.52L346.92 325.78L339.88 311.16L342.95 311.16L347.50 320.76Q347.88 321.56 348.11 322.12Q348.33 322.68 348.39 322.94Q348.46 322.68 348.70 322.12Q348.94 321.56 349.32 320.76L353.87 311.16L356.84 311.16L349.80 325.78" fill="white" fill-opacity="0.9"/>
<path d="M382.83 334.52L380.04 334.52L380.04 311.16L383.88 311.16L391.02 331.16Q390.95 330.36 390.87 329.19Q390.79 328.02 390.75 326.73Q390.70 325.43 390.70 324.28L390.70 311.16L393.48 311.16L393.48 334.52L389.64 334.52L382.54 314.52Q382.60 315.29 382.67 316.46Q382.73 317.62 382.78 318.92Q382.83 320.22 382.83 321.40" fill="white" fill-opacity="0.9"/>
<path d="M405.96 334.84Q402.83 334.84 401 333.02Q399.18 331.19 399.18 327.80L399.18 317.88Q399.18 314.49 401 312.66Q402.83 310.84 405.96 310.84Q409.10 310.84 410.92 312.66Q412.75 314.49 412.75 317.85L412.75 327.80Q412.75 331.19 410.92 333.02Q409.10 334.84 405.96 334.84M405.96 332.25Q407.85 332.25 408.86 331.18Q409.87 330.10 409.87 328.12L409.87 317.56Q409.87 315.58 408.86 314.50Q407.85 313.43 405.96 313.43Q404.11 313.43 403.08 314.50Q402.06 315.58 402.06 317.56L402.06 328.12Q402.06 330.10 403.08 331.18Q404.11 332.25 405.96 332.25" fill="white" fill-opacity="0.9"/>
<path d="M424.55 334.52L418.51 334.52L418.51 311.16L424.55 311.16Q426.83 311.16 428.47 312.02Q430.12 312.89 431.03 314.46Q431.95 316.02 431.95 318.17L431.95 327.48Q431.95 329.62 431.03 331.21Q430.12 332.79 428.47 333.66Q426.83 334.52 424.55 334.52M421.39 313.72L421.39 331.96L424.55 331.96Q426.67 331.96 427.87 330.78Q429.07 329.59 429.07 327.48L429.07 318.17Q429.07 316.09 427.87 314.90Q426.67 313.72 424.55 313.72" fill="white" fill-opacity="0.9"/>
<path d="M451.40 334.52L437.96 334.52L437.96 311.16L451.40 311.16L451.40 313.78L440.81 313.78L440.81 321.02L450.28 321.02L450.28 323.58L440.81 323.58L440.81 331.90L451.40 331.90" fill="white" fill-opacity="0.9"/>
<path d="M463.69 334.84Q460.30 334.84 458.28 333.05Q456.27 331.26 456.27 328.12L459.15 328.12Q459.15 330.07 460.39 331.18Q461.64 332.28 463.69 332.28Q465.67 332.28 466.86 331.13Q468.04 329.98 468.04 328.12Q468.04 326.71 467.29 325.67Q466.54 324.63 465.13 324.25L461.58 323.26Q459.37 322.62 458.11 320.97Q456.84 319.32 456.84 317.08Q456.84 315.22 457.67 313.82Q458.51 312.41 460.01 311.62Q461.51 310.84 463.47 310.84Q465.45 310.84 466.97 311.62Q468.49 312.41 469.35 313.80Q470.22 315.19 470.22 317.02L467.34 317.02Q467.34 315.42 466.25 314.41Q465.16 313.40 463.47 313.40Q461.77 313.40 460.71 314.41Q459.66 315.42 459.66 317.02Q459.66 318.30 460.35 319.21Q461.03 320.12 462.28 320.47L465.93 321.50Q468.27 322.14 469.56 323.91Q470.86 325.69 470.86 328.12Q470.86 331.19 468.91 333.02Q466.95 334.84 463.69 334.84" fill="white" fill-opacity="0.9"/>
</g>
<path d="M76.74 197.64L72.21 197.64L72.21 180.12L76.74 180.12Q78.45 180.12 79.68 180.77Q80.92 181.42 81.60 182.59Q82.29 183.77 82.29 185.38L82.29 192.36Q82.29 193.97 81.60 195.16Q80.92 196.34 79.68 196.99Q78.45 197.64 76.74 197.64M74.37 182.04L74.37 195.72L76.74 195.72Q78.33 195.72 79.23 194.83Q80.13 193.94 80.13 192.36L80.13 185.38Q80.13 183.82 79.23 182.93Q78.33 182.04 76.74 182.04" fill="white" fill-opacity="0.7"/>
<path d="M97.72 197.64L86.44 197.64L86.44 195.67L91.12 195.67L91.12 186.41L86.92 186.41L86.92 184.44L93.28 184.44L93.28 195.67L97.72 195.67L97.72 197.64M91.96 182.06Q91.17 182.06 90.71 181.66Q90.26 181.25 90.26 180.55Q90.26 179.83 90.71 179.41Q91.17 178.99 91.96 178.99Q92.75 178.99 93.21 179.41Q93.66 179.83 93.66 180.55Q93.66 181.25 93.21 181.66Q92.75 182.06 91.96 182.06" fill="white" fill-opacity="0.7"/>
<path d="M106.36 201.96L102.66 201.96L102.66 199.99L106.38 199.99Q107.51 199.99 108.16 199.36Q108.81 198.72 108.81 197.64L108.81 196.44L108.86 194.28L108.78 194.28Q108.59 195.46 107.66 196.09Q106.72 196.73 105.30 196.73Q103.26 196.73 102.09 195.43Q100.91 194.14 100.91 191.88L100.91 189.10Q100.91 186.84 102.09 185.52Q103.26 184.20 105.30 184.20Q106.72 184.20 107.66 184.87Q108.59 185.54 108.78 186.72L108.83 186.72L108.83 184.44L110.97 184.44L110.97 197.64Q110.97 199.63 109.73 200.80Q108.50 201.96 106.36 201.96M105.95 194.93Q107.30 194.93 108.06 194.09Q108.83 193.25 108.83 191.76L108.83 189.24Q108.83 187.75 108.06 186.91Q107.30 186.07 105.95 186.07Q104.58 186.07 103.83 186.86Q103.07 187.66 103.07 189L103.07 192Q103.07 193.34 103.83 194.14Q104.58 194.93 105.95 194.93" fill="white" fill-opacity="0.7"/>
<path d="M126.52 197.64L115.24 197.64L115.24 195.67L119.92 195.67L119.92 186.41L115.72 186.41L115.72 184.44L122.08 184.44L122.08 195.67L126.52 195.67L126.52 197.64M120.76 182.06Q119.97 182.06 119.51 181.66Q119.06 181.25 119.06 180.55Q119.06 179.83 119.51 179.41Q119.97 178.99 120.76 178.99Q121.55 178.99 122.01 179.41Q122.46 179.83 122.46 180.55Q122.46 181.25 122.01 181.66Q121.55 182.06 120.76 182.06" fill="white" fill-opacity="0.7"/>
<path d="M140.80 197.64L130.72 197.64L130.72 180.12L132.88 180.12L132.88 195.67L140.80 195.67" fill="white" fill-opacity="0.7"/>
<path d="M149.20 197.83Q146.82 197.83 145.42 196.44Q144.02 195.05 144.02 192.55L144.02 189.53Q144.02 187.01 145.41 185.63Q146.80 184.25 149.20 184.25Q151.60 184.25 152.99 185.63Q154.38 187.01 154.38 189.53L154.38 192.55Q154.38 195.05 152.98 196.44Q151.58 197.83 149.20 197.83M149.20 195.91Q150.62 195.91 151.42 195.12Q152.22 194.33 152.22 192.79L152.22 189.29Q152.22 187.75 151.42 186.96Q150.62 186.17 149.20 186.17Q147.81 186.17 146.99 186.96Q146.18 187.75 146.18 189.29L146.18 192.79Q146.18 194.33 146.99 195.12Q147.81 195.91 149.20 195.91" fill="white" fill-opacity="0.7"/>
<path d="M163.79 197.88Q161.39 197.88 159.95 196.54Q158.51 195.19 158.51 192.84L158.51 189.24Q158.51 186.89 159.95 185.54Q161.39 184.20 163.79 184.20Q166.07 184.20 167.48 185.42Q168.88 186.65 168.95 188.76L166.79 188.76Q166.72 187.49 165.93 186.80Q165.14 186.12 163.79 186.12Q162.38 186.12 161.52 186.92Q160.67 187.73 160.67 189.22L160.67 192.84Q160.67 194.33 161.52 195.14Q162.38 195.96 163.79 195.96Q165.14 195.96 165.93 195.26Q166.72 194.57 166.79 193.32L168.95 193.32Q168.88 195.43 167.48 196.66Q166.07 197.88 163.79 197.88" fill="white" fill-opacity="0.7"/>
<path d="M175.29 197.64L173.13 197.64L173.13 180.12L175.29 180.12L175.29 189.89L177.81 189.89L181.50 184.44L183.98 184.44L179.73 190.73L184.22 197.64L181.70 197.64L177.86 191.76L175.29 191.76" fill="white" fill-opacity="0.7"/>
<path d="M192.40 197.88Q190.07 197.88 188.64 196.48Q187.22 195.07 187.22 192.60L187.22 189.48Q187.22 187.01 188.64 185.60Q190.07 184.20 192.40 184.20Q193.96 184.20 195.12 184.82Q196.29 185.45 196.94 186.58Q197.58 187.70 197.58 189.24L197.58 191.59L189.33 191.59L189.33 192.84Q189.33 194.30 190.17 195.16Q191.01 196.01 192.40 196.01Q193.60 196.01 194.38 195.54Q195.16 195.07 195.33 194.28L197.49 194.28Q197.27 195.94 195.88 196.91Q194.49 197.88 192.40 197.88M189.33 189.24L189.33 189.91L195.47 189.91L195.47 189.24Q195.47 187.68 194.67 186.83Q193.86 185.98 192.40 185.98Q190.94 185.98 190.13 186.83Q189.33 187.68 189.33 189.24" fill="white" fill-opacity="0.7"/>
<path d="M204.45 197.64L202.29 197.64L202.29 184.44L204.45 184.44L204.45 186.96L204.50 186.96Q204.66 185.69 205.58 184.94Q206.49 184.20 208.02 184.20Q210.09 184.20 211.20 185.44Q212.32 186.67 212.32 188.95L212.32 190.08L210.16 190.08L210.16 188.95Q210.16 186.07 207.35 186.07Q205.94 186.07 205.19 186.89Q204.45 187.70 204.45 189.24" fill="white" fill-opacity="0.7"/>
<path d="M241.72 197.64L230.44 197.64L230.44 195.67L235.12 195.67L235.12 186.41L230.92 186.41L230.92 184.44L237.28 184.44L237.28 195.67L241.72 195.67L241.72 197.64M235.96 182.06Q235.17 182.06 234.71 181.66Q234.26 181.25 234.26 180.55Q234.26 179.83 234.71 179.41Q235.17 178.99 235.96 178.99Q236.75 178.99 237.21 179.41Q237.66 179.83 237.66 180.55Q237.66 181.25 237.21 181.66Q236.75 182.06 235.96 182.06" fill="white" fill-opacity="0.7"/>
<path d="M247.17 197.64L245.01 197.64L245.01 184.44L247.17 184.44L247.17 186.96L247.19 186.96Q247.36 185.64 248.27 184.92Q249.18 184.20 250.70 184.20Q252.69 184.20 253.86 185.42Q255.04 186.65 255.04 188.76L255.04 197.64L252.88 197.64L252.88 189.14Q252.88 187.63 252.12 186.83Q251.37 186.02 250.07 186.02Q248.73 186.02 247.95 186.86Q247.17 187.70 247.17 189.24" fill="white" fill-opacity="0.7"/>
<path d="M269.56 197.64L265.72 197.64Q264.09 197.64 263.10 196.69Q262.12 195.74 262.12 194.16L262.12 186.41L258.33 186.41L258.33 184.44L262.12 184.44L262.12 180.72L264.28 180.72L264.28 184.44L269.68 184.44L269.68 186.41L264.28 186.41L264.28 194.16Q264.28 194.83 264.68 195.25Q265.07 195.67 265.72 195.67L269.56 195.67" fill="white" fill-opacity="0.7"/>
<path d="M278.80 197.88Q276.47 197.88 275.04 196.48Q273.62 195.07 273.62 192.60L273.62 189.48Q273.62 187.01 275.04 185.60Q276.47 184.20 278.80 184.20Q280.36 184.20 281.52 184.82Q282.69 185.45 283.34 186.58Q283.98 187.70 283.98 189.24L283.98 191.59L275.73 191.59L275.73 192.84Q275.73 194.30 276.57 195.16Q277.41 196.01 278.80 196.01Q280 196.01 280.78 195.54Q281.56 195.07 281.73 194.28L283.89 194.28Q283.67 195.94 282.28 196.91Q280.89 197.88 278.80 197.88M275.73 189.24L275.73 189.91L281.87 189.91L281.87 189.24Q281.87 187.68 281.07 186.83Q280.26 185.98 278.80 185.98Q277.34 185.98 276.53 186.83Q275.73 187.68 275.73 189.24" fill="white" fill-opacity="0.7"/>
<path d="M293.56 201.96L289.86 201.96L289.86 199.99L293.58 199.99Q294.71 199.99 295.36 199.36Q296.01 198.72 296.01 197.64L296.01 196.44L296.06 194.28L295.98 194.28Q295.79 195.46 294.86 196.09Q293.92 196.73 292.50 196.73Q290.46 196.73 289.29 195.43Q288.11 194.14 288.11 191.88L288.11 189.10Q288.11 186.84 289.29 185.52Q290.46 184.20 292.50 184.20Q293.92 184.20 294.86 184.87Q295.79 185.54 295.98 186.72L296.03 186.72L296.03 184.44L298.17 184.44L298.17 197.64Q298.17 199.63 296.93 200.80Q295.70 201.96 293.56 201.96M293.15 194.93Q294.50 194.93 295.26 194.09Q296.03 193.25 296.03 191.76L296.03 189.24Q296.03 187.75 295.26 186.91Q294.50 186.07 293.15 186.07Q291.78 186.07 291.03 186.86Q290.27 187.66 290.27 189L290.27 192Q290.27 193.34 291.03 194.14Q291.78 194.93 293.15 194.93" fill="white" fill-opacity="0.7"/>
<path d="M305.25 197.64L303.09 197.64L303.09 184.44L305.25 184.44L305.25 186.96L305.30 186.96Q305.46 185.69 306.38 184.94Q307.29 184.20 308.82 184.20Q310.89 184.20 312 185.44Q313.12 186.67 313.12 188.95L313.12 190.08L310.96 190.08L310.96 188.95Q310.96 186.07 308.15 186.07Q306.74 186.07 305.99 186.89Q305.25 187.70 305.25 189.24" fill="white" fill-opacity="0.7"/>
<path d="M320.85 197.88Q318.81 197.88 317.61 196.74Q316.41 195.60 316.41 193.75Q316.41 192.53 316.96 191.62Q317.51 190.70 318.50 190.19Q319.48 189.67 320.75 189.67L324.83 189.67L324.83 188.64Q324.83 186.07 322.02 186.07Q320.78 186.07 320.01 186.53Q319.24 186.98 319.19 187.80L317.03 187.80Q317.15 186.24 318.48 185.22Q319.82 184.20 322.02 184.20Q324.42 184.20 325.71 185.35Q326.99 186.50 326.99 188.57L326.99 197.64L324.86 197.64L324.86 195.24L324.81 195.24Q324.62 196.46 323.58 197.17Q322.55 197.88 320.85 197.88M321.38 196.06Q322.96 196.06 323.90 195.29Q324.83 194.52 324.83 193.20L324.83 191.35L320.99 191.35Q319.94 191.35 319.28 191.99Q318.62 192.62 318.62 193.68Q318.62 194.78 319.35 195.42Q320.08 196.06 321.38 196.06" fill="white" fill-opacity="0.7"/>
<path d="M341.56 197.64L337.72 197.64Q336.09 197.64 335.10 196.69Q334.12 195.74 334.12 194.16L334.12 186.41L330.33 186.41L330.33 184.44L334.12 184.44L334.12 180.72L336.28 180.72L336.28 184.44L341.68 184.44L341.68 186.41L336.28 186.41L336.28 194.16Q336.28 194.83 336.68 195.25Q337.07 195.67 337.72 195.67L341.56 195.67" fill="white" fill-opacity="0.7"/>
<path d="M350.80 197.88Q348.47 197.88 347.04 196.48Q345.62 195.07 345.62 192.60L345.62 189.48Q345.62 187.01 347.04 185.60Q348.47 184.20 350.80 184.20Q352.36 184.20 353.52 184.82Q354.69 185.45 355.34 186.58Q355.98 187.70 355.98 189.24L355.98 191.59L347.73 191.59L347.73 192.84Q347.73 194.30 348.57 195.16Q349.41 196.01 350.80 196.01Q352 196.01 352.78 195.54Q353.56 195.07 353.73 194.28L355.89 194.28Q355.67 195.94 354.28 196.91Q352.89 197.88 350.80 197.88M347.73 189.24L347.73 189.91L353.87 189.91L353.87 189.24Q353.87 187.68 353.07 186.83Q352.26 185.98 350.80 185.98Q349.34 185.98 348.53 186.83Q347.73 187.68 347.73 189.24" fill="white" fill-opacity="0.7"/>
<path d="M365.73 197.83L364.67 197.83Q362.46 197.83 361.25 196.84Q360.04 195.84 360.04 194.02L362.20 194.02Q362.20 194.93 362.85 195.44Q363.50 195.96 364.67 195.96L365.73 195.96Q366.93 195.96 367.59 195.43Q368.25 194.90 368.25 193.94Q368.25 192.24 366.69 192.02L363.04 191.50Q361.70 191.30 360.95 190.38Q360.21 189.46 360.21 187.94Q360.21 186.22 361.40 185.23Q362.58 184.25 364.67 184.25L365.73 184.25Q367.65 184.25 368.86 185.20Q370.07 186.14 370.17 187.68L367.98 187.68Q367.94 186.98 367.32 186.53Q366.71 186.07 365.73 186.07L364.67 186.07Q363.57 186.07 362.94 186.58Q362.32 187.08 362.32 187.94Q362.32 189.34 363.59 189.53L367 190.01Q370.36 190.49 370.36 193.94Q370.36 195.79 369.15 196.81Q367.94 197.83 365.73 197.83" fill="white" fill-opacity="0.7"/>
<path d="M394 197.88Q391.65 197.88 390.28 196.51Q388.91 195.14 388.91 192.60L388.91 185.16Q388.91 182.62 390.28 181.25Q391.65 179.88 394 179.88Q396.35 179.88 397.72 181.25Q399.09 182.62 399.09 185.14L399.09 192.60Q399.09 195.14 397.72 196.51Q396.35 197.88 394 197.88M394 195.94Q395.42 195.94 396.17 195.13Q396.93 194.33 396.93 192.84L396.93 184.92Q396.93 183.43 396.17 182.63Q395.42 181.82 394 181.82Q392.61 181.82 391.84 182.63Q391.07 183.43 391.07 184.92L391.07 192.84Q391.07 194.33 391.84 195.13Q392.61 195.94 394 195.94" fill="white" fill-opacity="0.7"/>
<path d="M409.48 197.64L407.32 197.64L407.32 182.09L402.52 182.09L402.52 180.12L414.28 180.12L414.28 182.09L409.48 182.09" fill="white" fill-opacity="0.7"/>
<path d="M424.26 197.64L421.31 197.64L416.80 180.12L419.01 180.12L422.01 192.05Q422.32 193.30 422.52 194.35Q422.73 195.41 422.82 195.96Q422.92 195.41 423.15 194.34Q423.38 193.27 423.69 192.02L426.57 180.12L428.80 180.12" fill="white" fill-opacity="0.7"/>
<path d="M451.79 197.88Q449.39 197.88 447.95 196.54Q446.51 195.19 446.51 192.84L446.51 189.24Q446.51 186.89 447.95 185.54Q449.39 184.20 451.79 184.20Q454.07 184.20 455.48 185.42Q456.88 186.65 456.95 188.76L454.79 188.76Q454.72 187.49 453.93 186.80Q453.14 186.12 451.79 186.12Q450.38 186.12 449.52 186.92Q448.67 187.73 448.67 189.22L448.67 192.84Q448.67 194.33 449.52 195.14Q450.38 195.96 451.79 195.96Q453.14 195.96 453.93 195.26Q454.72 194.57 454.79 193.32L456.95 193.32Q456.88 195.43 455.48 196.66Q454.07 197.88 451.79 197.88" fill="white" fill-opacity="0.7"/>
<path d="M466 197.88Q463.67 197.88 462.24 196.48Q460.82 195.07 460.82 192.60L460.82 189.48Q460.82 187.01 462.24 185.60Q463.67 184.20 466 184.20Q467.56 184.20 468.72 184.82Q469.89 185.45 470.54 186.58Q471.18 187.70 471.18 189.24L471.18 191.59L462.93 191.59L462.93 192.84Q462.93 194.30 463.77 195.16Q464.61 196.01 466 196.01Q467.20 196.01 467.98 195.54Q468.76 195.07 468.93 194.28L471.09 194.28Q470.87 195.94 469.48 196.91Q468.09 197.88 466 197.88M462.93 189.24L462.93 189.91L469.07 189.91L469.07 189.24Q469.07 187.68 468.27 186.83Q467.46 185.98 466 185.98Q464.54 185.98 463.73 186.83Q462.93 187.68 462.93 189.24" fill="white" fill-opacity="0.7"/>
<path d="M478.05 197.64L475.89 197.64L475.89 184.44L478.05 184.44L478.05 186.96L478.10 186.96Q478.26 185.69 479.18 184.94Q480.09 184.20 481.62 184.20Q483.69 184.20 484.80 185.44Q485.92 186.67 485.92 188.95L485.92 190.08L483.76 190.08L483.76 188.95Q483.76 186.07 480.95 186.07Q479.54 186.07 478.79 186.89Q478.05 187.70 478.05 189.24" fill="white" fill-opacity="0.7"/>
<path d="M499.96 197.64L496.12 197.64Q494.49 197.64 493.50 196.69Q492.52 195.74 492.52 194.16L492.52 186.41L488.73 186.41L488.73 184.44L492.52 184.44L492.52 180.72L494.68 180.72L494.68 184.44L500.08 184.44L500.08 186.41L494.68 186.41L494.68 194.16Q494.68 194.83 495.08 195.25Q495.47 195.67 496.12 195.67L499.96 195.67" fill="white" fill-opacity="0.7"/>
<path d="M515.32 197.64L504.04 197.64L504.04 195.67L508.72 195.67L508.72 186.41L504.52 186.41L504.52 184.44L510.88 184.44L510.88 195.67L515.32 195.67L515.32 197.64M509.56 182.06Q508.77 182.06 508.31 181.66Q507.86 181.25 507.86 180.55Q507.86 179.83 508.31 179.41Q508.77 178.99 509.56 178.99Q510.35 178.99 510.81 179.41Q511.26 179.83 511.26 180.55Q511.26 181.25 510.81 181.66Q510.35 182.06 509.56 182.06" fill="white" fill-opacity="0.7"/>
<path d="M523.72 197.64L521.56 197.64L521.56 188.21L517.72 188.21L517.72 186.24L521.56 186.24L521.56 183.48Q521.56 181.92 522.54 181.02Q523.53 180.12 525.26 180.12L529.12 180.12L529.12 182.09L525.26 182.09Q523.72 182.09 523.72 183.48L523.72 186.24L529.12 186.24L529.12 188.21L523.72 188.21" fill="white" fill-opacity="0.7"/>
<path d="M544.12 197.64L532.84 197.64L532.84 195.67L537.52 195.67L537.52 186.41L533.32 186.41L533.32 184.44L539.68 184.44L539.68 195.67L544.12 195.67L544.12 197.64M538.36 182.06Q537.57 182.06 537.11 181.66Q536.66 181.25 536.66 180.55Q536.66 179.83 537.11 179.41Q537.57 178.99 538.36 178.99Q539.15 178.99 539.61 179.41Q540.06 179.83 540.06 180.55Q540.06 181.25 539.61 181.66Q539.15 182.06 538.36 182.06" fill="white" fill-opacity="0.7"/>
<path d="M552.59 197.88Q550.19 197.88 548.75 196.54Q547.31 195.19 547.31 192.84L547.31 189.24Q547.31 186.89 548.75 185.54Q550.19 184.20 552.59 184.20Q554.87 184.20 556.28 185.42Q557.68 186.65 557.75 188.76L555.59 188.76Q555.52 187.49 554.73 186.80Q553.94 186.12 552.59 186.12Q551.18 186.12 550.32 186.92Q549.47 187.73 549.47 189.22L549.47 192.84Q549.47 194.33 550.32 195.14Q551.18 195.96 552.59 195.96Q553.94 195.96 554.73 195.26Q555.52 194.57 555.59 193.32L557.75 193.32Q557.68 195.43 556.28 196.66Q554.87 197.88 552.59 197.88" fill="white" fill-opacity="0.7"/>
<path d="M565.65 197.88Q563.61 197.88 562.41 196.74Q561.21 195.60 561.21 193.75Q561.21 192.53 561.76 191.62Q562.31 190.70 563.30 190.19Q564.28 189.67 565.55 189.67L569.63 189.67L569.63 188.64Q569.63 186.07 566.82 186.07Q565.58 186.07 564.81 186.53Q564.04 186.98 563.99 187.80L561.83 187.80Q561.95 186.24 563.28 185.22Q564.62 184.20 566.82 184.20Q569.22 184.20 570.51 185.35Q571.79 186.50 571.79 188.57L571.79 197.64L569.66 197.64L569.66 195.24L569.61 195.24Q569.42 196.46 568.38 197.17Q567.35 197.88 565.65 197.88M566.18 196.06Q567.76 196.06 568.70 195.29Q569.63 194.52 569.63 193.20L569.63 191.35L565.79 191.35Q564.74 191.35 564.08 191.99Q563.42 192.62 563.42 193.68Q563.42 194.78 564.15 195.42Q564.88 196.06 566.18 196.06" fill="white" fill-opacity="0.7"/>
<path d="M586.36 197.64L582.52 197.64Q580.89 197.64 579.90 196.69Q578.92 195.74 578.92 194.16L578.92 186.41L575.13 186.41L575.13 184.44L578.92 184.44L578.92 180.72L581.08 180.72L581.08 184.44L586.48 184.44L586.48 186.41L581.08 186.41L581.08 194.16Q581.08 194.83 581.48 195.25Q581.87 195.67 582.52 195.67L586.36 195.67" fill="white" fill-opacity="0.7"/>
<path d="M595.60 197.88Q593.27 197.88 591.84 196.48Q590.42 195.07 590.42 192.60L590.42 189.48Q590.42 187.01 591.84 185.60Q593.27 184.20 595.60 184.20Q597.16 184.20 598.32 184.82Q599.49 185.45 600.14 186.58Q600.78 187.70 600.78 189.24L600.78 191.59L592.53 191.59L592.53 192.84Q592.53 194.30 593.37 195.16Q594.21 196.01 595.60 196.01Q596.80 196.01 597.58 195.54Q598.36 195.07 598.53 194.28L600.69 194.28Q600.47 195.94 599.08 196.91Q597.69 197.88 595.60 197.88M592.53 189.24L592.53 189.91L598.67 189.91L598.67 189.24Q598.67 187.68 597.87 186.83Q597.06 185.98 595.60 185.98Q594.14 185.98 593.33 186.83Q592.53 187.68 592.53 189.24" fill="white" fill-opacity="0.7"/>
<path d="M610.53 197.83L609.47 197.83Q607.26 197.83 606.05 196.84Q604.84 195.84 604.84 194.02L607 194.02Q607 194.93 607.65 195.44Q608.30 195.96 609.47 195.96L610.53 195.96Q611.73 195.96 612.39 195.43Q613.05 194.90 613.05 193.94Q613.05 192.24 611.49 192.02L607.84 191.50Q606.50 191.30 605.75 190.38Q605.01 189.46 605.01 187.94Q605.01 186.22 606.20 185.23Q607.38 184.25 609.47 184.25L610.53 184.25Q612.45 184.25 613.66 185.20Q614.87 186.14 614.97 187.68L612.78 187.68Q612.74 186.98 612.12 186.53Q611.51 186.07 610.53 186.07L609.47 186.07Q608.37 186.07 607.74 186.58Q607.12 187.08 607.12 187.94Q607.12 189.34 608.39 189.53L611.80 190.01Q615.16 190.49 615.16 193.94Q615.16 195.79 613.95 196.81Q612.74 197.83 610.53 197.83" fill="white" fill-opacity="0.7"/>
<path d="M638.92 197.64L636.76 197.64L636.76 188.21L632.92 188.21L632.92 186.24L636.76 186.24L636.76 183.48Q636.76 181.92 637.74 181.02Q638.73 180.12 640.46 180.12L644.32 180.12L644.32 182.09L640.46 182.09Q638.92 182.09 638.92 183.48L638.92 186.24L644.32 186.24L644.32 188.21L638.92 188.21" fill="white" fill-opacity="0.7"/>
<path d="M653.20 197.83Q650.82 197.83 649.42 196.44Q648.02 195.05 648.02 192.55L648.02 189.53Q648.02 187.01 649.41 185.63Q650.80 184.25 653.20 184.25Q655.60 184.25 656.99 185.63Q658.38 187.01 658.38 189.53L658.38 192.55Q658.38 195.05 656.98 196.44Q655.58 197.83 653.20 197.83M653.20 195.91Q654.62 195.91 655.42 195.12Q656.22 194.33 656.22 192.79L656.22 189.29Q656.22 187.75 655.42 186.96Q654.62 186.17 653.20 186.17Q651.81 186.17 650.99 186.96Q650.18 187.75 650.18 189.29L650.18 192.79Q650.18 194.33 650.99 195.12Q651.81 195.91 653.20 195.91" fill="white" fill-opacity="0.7"/>
<path d="M665.25 197.64L663.09 197.64L663.09 184.44L665.25 184.44L665.25 186.96L665.30 186.96Q665.46 185.69 666.38 184.94Q667.29 184.20 668.82 184.20Q670.89 184.20 672 185.44Q673.12 186.67 673.12 188.95L673.12 190.08L670.96 190.08L670.96 188.95Q670.96 186.07 668.15 186.07Q666.74 186.07 665.99 186.89Q665.25 187.70 665.25 189.24" fill="white" fill-opacity="0.7"/>
<path d="M701.39 201.96L699.23 201.96L699.23 198.12L699.28 195.12L699.21 195.12Q699.04 196.39 698.08 197.14Q697.12 197.88 695.63 197.88Q693.64 197.88 692.46 196.56Q691.29 195.24 691.29 192.96L691.29 189.10Q691.29 186.82 692.48 185.51Q693.66 184.20 695.63 184.20Q697.12 184.20 698.08 184.93Q699.04 185.66 699.21 186.96L699.23 186.96L699.23 184.44L701.39 184.44L701.39 201.96M696.35 196.01Q697.70 196.01 698.46 195.17Q699.23 194.33 699.23 192.84L699.23 189.24Q699.23 187.75 698.46 186.91Q697.70 186.07 696.35 186.07Q694.98 186.07 694.22 186.77Q693.45 187.46 693.45 189L693.45 193.08Q693.45 194.62 694.22 195.31Q694.98 196.01 696.35 196.01" fill="white" fill-opacity="0.7"/>
<path d="M710.78 197.88Q708.50 197.88 707.13 196.52Q705.76 195.17 705.76 192.84L705.76 184.44L707.92 184.44L707.92 192.84Q707.92 194.28 708.69 195.13Q709.46 195.98 710.78 195.98Q712.12 195.98 712.90 195.13Q713.68 194.28 713.68 192.84L713.68 184.44L715.84 184.44L715.84 192.84Q715.84 195.17 714.45 196.52Q713.06 197.88 710.78 197.88" fill="white" fill-opacity="0.7"/>
<path d="M724.05 197.88Q722.01 197.88 720.81 196.74Q719.61 195.60 719.61 193.75Q719.61 192.53 720.16 191.62Q720.71 190.70 721.70 190.19Q722.68 189.67 723.95 189.67L728.03 189.67L728.03 188.64Q728.03 186.07 725.22 186.07Q723.98 186.07 723.21 186.53Q722.44 186.98 722.39 187.80L720.23 187.80Q720.35 186.24 721.68 185.22Q723.02 184.20 725.22 184.20Q727.62 184.20 728.91 185.35Q730.19 186.50 730.19 188.57L730.19 197.64L728.06 197.64L728.06 195.24L728.01 195.24Q727.82 196.46 726.78 197.17Q725.75 197.88 724.05 197.88M724.58 196.06Q726.16 196.06 727.10 195.29Q728.03 194.52 728.03 193.20L728.03 191.35L724.19 191.35Q723.14 191.35 722.48 191.99Q721.82 192.62 721.82 193.68Q721.82 194.78 722.55 195.42Q723.28 196.06 724.58 196.06" fill="white" fill-opacity="0.7"/>
<path d="M745.60 197.64L741.52 197.64Q739.77 197.64 738.72 196.62Q737.68 195.60 737.68 193.92L737.68 182.09L733.12 182.09L733.12 180.12L739.84 180.12L739.84 193.92Q739.84 194.74 740.30 195.20Q740.75 195.67 741.52 195.67L745.60 195.67" fill="white" fill-opacity="0.7"/>
<path d="M760.12 197.64L748.84 197.64L748.84 195.67L753.52 195.67L753.52 186.41L749.32 186.41L749.32 184.44L755.68 184.44L755.68 195.67L760.12 195.67L760.12 197.64M754.36 182.06Q753.57 182.06 753.11 181.66Q752.66 181.25 752.66 180.55Q752.66 179.83 753.11 179.41Q753.57 178.99 754.36 178.99Q755.15 178.99 755.61 179.41Q756.06 179.83 756.06 180.55Q756.06 181.25 755.61 181.66Q755.15 182.06 754.36 182.06" fill="white" fill-opacity="0.7"/>
<path d="M768.52 197.64L766.36 197.64L766.36 188.21L762.52 188.21L762.52 186.24L766.36 186.24L766.36 183.48Q766.36 181.92 767.34 181.02Q768.33 180.12 770.06 180.12L773.92 180.12L773.92 182.09L770.06 182.09Q768.52 182.09 768.52 183.48L768.52 186.24L773.92 186.24L773.92 188.21L768.52 188.21" fill="white" fill-opacity="0.7"/>
<path d="M788.92 197.64L777.64 197.64L777.64 195.67L782.32 195.67L782.32 186.41L778.12 186.41L778.12 184.44L784.48 184.44L784.48 195.67L788.92 195.67L788.92 197.64M783.16 182.06Q782.37 182.06 781.91 181.66Q781.46 181.25 781.46 180.55Q781.46 179.83 781.91 179.41Q782.37 178.99 783.16 178.99Q783.95 178.99 784.41 179.41Q784.86 179.83 784.86 180.55Q784.86 181.25 784.41 181.66Q783.95 182.06 783.16 182.06" fill="white" fill-opacity="0.7"/>
<path d="M797.20 197.88Q794.87 197.88 793.44 196.48Q792.02 195.07 792.02 192.60L792.02 189.48Q792.02 187.01 793.44 185.60Q794.87 184.20 797.20 184.20Q798.76 184.20 799.92 184.82Q801.09 185.45 801.74 186.58Q802.38 187.70 802.38 189.24L802.38 191.59L794.13 191.59L794.13 192.84Q794.13 194.30 794.97 195.16Q795.81 196.01 797.20 196.01Q798.40 196.01 799.18 195.54Q799.96 195.07 800.13 194.28L802.29 194.28Q802.07 195.94 800.68 196.91Q799.29 197.88 797.20 197.88M794.13 189.24L794.13 189.91L800.27 189.91L800.27 189.24Q800.27 187.68 799.47 186.83Q798.66 185.98 797.20 185.98Q795.74 185.98 794.93 186.83Q794.13 187.68 794.13 189.24" fill="white" fill-opacity="0.7"/>
<path d="M810.83 197.88Q808.86 197.88 807.68 196.56Q806.49 195.24 806.49 192.98L806.49 189.12Q806.49 186.84 807.66 185.52Q808.84 184.20 810.83 184.20Q812.32 184.20 813.29 184.94Q814.26 185.69 814.46 186.96L814.48 186.96L814.43 183.96L814.43 180.12L816.59 180.12L816.59 197.64L814.43 197.64L814.43 195.12L814.41 195.12Q814.24 196.42 813.28 197.15Q812.32 197.88 810.83 197.88M811.55 196.01Q812.90 196.01 813.66 195.17Q814.43 194.33 814.43 192.84L814.43 189.24Q814.43 187.75 813.66 186.91Q812.90 186.07 811.55 186.07Q810.18 186.07 809.42 186.78Q808.65 187.49 808.65 189.12L808.65 192.96Q808.65 194.57 809.42 195.29Q810.18 196.01 811.55 196.01" fill="white" fill-opacity="0.7"/>
<path d="M840.59 197.88Q838.19 197.88 836.75 196.54Q835.31 195.19 835.31 192.84L835.31 189.24Q835.31 186.89 836.75 185.54Q838.19 184.20 840.59 184.20Q842.87 184.20 844.28 185.42Q845.68 186.65 845.75 188.76L843.59 188.76Q843.52 187.49 842.73 186.80Q841.94 186.12 840.59 186.12Q839.18 186.12 838.32 186.92Q837.47 187.73 837.47 189.22L837.47 192.84Q837.47 194.33 838.32 195.14Q839.18 195.96 840.59 195.96Q841.94 195.96 842.73 195.26Q843.52 194.57 843.59 193.32L845.75 193.32Q845.68 195.43 844.28 196.66Q842.87 197.88 840.59 197.88" fill="white" fill-opacity="0.7"/>
<path d="M853.65 197.88Q851.61 197.88 850.41 196.74Q849.21 195.60 849.21 193.75Q849.21 192.53 849.76 191.62Q850.31 190.70 851.30 190.19Q852.28 189.67 853.55 189.67L857.63 189.67L857.63 188.64Q857.63 186.07 854.82 186.07Q853.58 186.07 852.81 186.53Q852.04 186.98 851.99 187.80L849.83 187.80Q849.95 186.24 851.28 185.22Q852.62 184.20 854.82 184.20Q857.22 184.20 858.51 185.35Q859.79 186.50 859.79 188.57L859.79 197.64L857.66 197.64L857.66 195.24L857.61 195.24Q857.42 196.46 856.38 197.17Q855.35 197.88 853.65 197.88M854.18 196.06Q855.76 196.06 856.70 195.29Q857.63 194.52 857.63 193.20L857.63 191.35L853.79 191.35Q852.74 191.35 852.08 191.99Q851.42 192.62 851.42 193.68Q851.42 194.78 852.15 195.42Q852.88 196.06 854.18 196.06" fill="white" fill-opacity="0.7"/>
<path d="M866.37 197.64L864.21 197.64L864.21 184.44L866.37 184.44L866.37 186.96L866.39 186.96Q866.56 185.64 867.47 184.92Q868.38 184.20 869.90 184.20Q871.89 184.20 873.06 185.42Q874.24 186.65 874.24 188.76L874.24 197.64L872.08 197.64L872.08 189.14Q872.08 187.63 871.32 186.83Q870.57 186.02 869.27 186.02Q867.93 186.02 867.15 186.86Q866.37 187.70 866.37 189.24" fill="white" fill-opacity="0.7"/>
<path d="M882.83 197.88Q880.86 197.88 879.68 196.56Q878.49 195.24 878.49 192.98L878.49 189.12Q878.49 186.84 879.66 185.52Q880.84 184.20 882.83 184.20Q884.32 184.20 885.29 184.94Q886.26 185.69 886.46 186.96L886.48 186.96L886.43 183.96L886.43 180.12L888.59 180.12L888.59 197.64L886.43 197.64L886.43 195.12L886.41 195.12Q886.24 196.42 885.28 197.15Q884.32 197.88 882.83 197.88M883.55 196.01Q884.90 196.01 885.66 195.17Q886.43 194.33 886.43 192.84L886.43 189.24Q886.43 187.75 885.66 186.91Q884.90 186.07 883.55 186.07Q882.18 186.07 881.42 186.78Q880.65 187.49 880.65 189.12L880.65 192.96Q880.65 194.57 881.42 195.29Q882.18 196.01 883.55 196.01" fill="white" fill-opacity="0.7"/>
<path d="M904.12 197.64L892.84 197.64L892.84 195.67L897.52 195.67L897.52 186.41L893.32 186.41L893.32 184.44L899.68 184.44L899.68 195.67L904.12 195.67L904.12 197.64M898.36 182.06Q897.57 182.06 897.11 181.66Q896.66 181.25 896.66 180.55Q896.66 179.83 897.11 179.41Q897.57 178.99 898.36 178.99Q899.15 178.99 899.61 179.41Q900.06 179.83 900.06 180.55Q900.06 181.25 899.61 181.66Q899.15 182.06 898.36 182.06" fill="white" fill-opacity="0.7"/>
<path d="M911.63 197.88Q909.66 197.88 908.48 196.56Q907.29 195.24 907.29 192.98L907.29 189.12Q907.29 186.84 908.46 185.52Q909.64 184.20 911.63 184.20Q913.12 184.20 914.09 184.94Q915.06 185.69 915.26 186.96L915.28 186.96L915.23 183.96L915.23 180.12L917.39 180.12L917.39 197.64L915.23 197.64L915.23 195.12L915.21 195.12Q915.04 196.42 914.08 197.15Q913.12 197.88 911.63 197.88M912.35 196.01Q913.70 196.01 914.46 195.17Q915.23 194.33 915.23 192.84L915.23 189.24Q915.23 187.75 914.46 186.91Q913.70 186.07 912.35 186.07Q910.98 186.07 910.22 186.78Q909.45 187.49 909.45 189.12L909.45 192.96Q909.45 194.57 910.22 195.29Q910.98 196.01 912.35 196.01" fill="white" fill-opacity="0.7"/>
<path d="M925.65 197.88Q923.61 197.88 922.41 196.74Q921.21 195.60 921.21 193.75Q921.21 192.53 921.76 191.62Q922.31 190.70 923.30 190.19Q924.28 189.67 925.55 189.67L929.63 189.67L929.63 188.64Q929.63 186.07 926.82 186.07Q925.58 186.07 924.81 186.53Q924.04 186.98 923.99 187.80L921.83 187.80Q921.95 186.24 923.28 185.22Q924.62 184.20 926.82 184.20Q929.22 184.20 930.51 185.35Q931.79 186.50 931.79 188.57L931.79 197.64L929.66 197.64L929.66 195.24L929.61 195.24Q929.42 196.46 928.38 197.17Q927.35 197.88 925.65 197.88M926.18 196.06Q927.76 196.06 928.70 195.29Q929.63 194.52 929.63 193.20L929.63 191.35L925.79 191.35Q924.74 191.35 924.08 191.99Q923.42 192.62 923.42 193.68Q923.42 194.78 924.15 195.42Q924.88 196.06 926.18 196.06" fill="white" fill-opacity="0.7"/>
<path d="M946.36 197.64L942.52 197.64Q940.89 197.64 939.90 196.69Q938.92 195.74 938.92 194.16L938.92 186.41L935.13 186.41L935.13 184.44L938.92 184.44L938.92 180.72L941.08 180.72L941.08 184.44L946.48 184.44L946.48 186.41L941.08 186.41L941.08 194.16Q941.08 194.83 941.48 195.25Q941.87 195.67 942.52 195.67L946.36 195.67" fill="white" fill-opacity="0.7"/>
<path d="M955.60 197.88Q953.27 197.88 951.84 196.48Q950.42 195.07 950.42 192.60L950.42 189.48Q950.42 187.01 951.84 185.60Q953.27 184.20 955.60 184.20Q957.16 184.20 958.32 184.82Q959.49 185.45 960.14 186.58Q960.78 187.70 960.78 189.24L960.78 191.59L952.53 191.59L952.53 192.84Q952.53 194.30 953.37 195.16Q954.21 196.01 955.60 196.01Q956.80 196.01 957.58 195.54Q958.36 195.07 958.53 194.28L960.69 194.28Q960.47 195.94 959.08 196.91Q957.69 197.88 955.60 197.88M952.53 189.24L952.53 189.91L958.67 189.91L958.67 189.24Q958.67 187.68 957.87 186.83Q957.06 185.98 955.60 185.98Q954.14 185.98 953.33 186.83Q952.53 187.68 952.53 189.24" fill="white" fill-opacity="0.7"/>
<path d="M970.53 197.83L969.47 197.83Q967.26 197.83 966.05 196.84Q964.84 195.84 964.84 194.02L967 194.02Q967 194.93 967.65 195.44Q968.30 195.96 969.47 195.96L970.53 195.96Q971.73 195.96 972.39 195.43Q973.05 194.90 973.05 193.94Q973.05 192.24 971.49 192.02L967.84 191.50Q966.50 191.30 965.75 190.38Q965.01 189.46 965.01 187.94Q965.01 186.22 966.20 185.23Q967.38 184.25 969.47 184.25L970.53 184.25Q972.45 184.25 973.66 185.20Q974.87 186.14 974.97 187.68L972.78 187.68Q972.74 186.98 972.12 186.53Q971.51 186.07 970.53 186.07L969.47 186.07Q968.37 186.07 967.74 186.58Q967.12 187.08 967.12 187.94Q967.12 189.34 968.39 189.53L971.80 190.01Q975.16 190.49 975.16 193.94Q975.16 195.79 973.95 196.81Q972.74 197.83 970.53 197.83" fill="white" fill-opacity="0.7"/>
<path d="M985.46 187.32L983.37 187.32L983.18 180.12L985.62 180.12" fill="white" fill-opacity="0.7"/>
<path d="M1013.73 197.83L1012.67 197.83Q1010.46 197.83 1009.25 196.84Q1008.04 195.84 1008.04 194.02L1010.20 194.02Q1010.20 194.93 1010.85 195.44Q1011.50 195.96 1012.67 195.96L1013.73 195.96Q1014.93 195.96 1015.59 195.43Q1016.25 194.90 1016.25 193.94Q1016.25 192.24 1014.69 192.02L1011.04 191.50Q1009.70 191.30 1008.95 190.38Q1008.21 189.46 1008.21 187.94Q1008.21 186.22 1009.40 185.23Q1010.58 184.25 1012.67 184.25L1013.73 184.25Q1015.65 184.25 1016.86 185.20Q1018.07 186.14 1018.17 187.68L1015.98 187.68Q1015.94 186.98 1015.32 186.53Q1014.71 186.07 1013.73 186.07L1012.67 186.07Q1011.57 186.07 1010.94 186.58Q1010.32 187.08 1010.32 187.94Q1010.32 189.34 1011.59 189.53L1015 190.01Q1018.36 190.49 1018.36 193.94Q1018.36 195.79 1017.15 196.81Q1015.94 197.83 1013.73 197.83" fill="white" fill-opacity="0.7"/>
<path d="M1027.60 197.88Q1025.27 197.88 1023.84 196.48Q1022.42 195.07 1022.42 192.60L1022.42 189.48Q1022.42 187.01 1023.84 185.60Q1025.27 184.20 1027.60 184.20Q1029.16 184.20 1030.32 184.82Q1031.49 185.45 1032.14 186.58Q1032.78 187.70 1032.78 189.24L1032.78 191.59L1024.53 191.59L1024.53 192.84Q1024.53 194.30 1025.37 195.16Q1026.21 196.01 1027.60 196.01Q1028.80 196.01 1029.58 195.54Q1030.36 195.07 1030.53 194.28L1032.69 194.28Q1032.47 195.94 1031.08 196.91Q1029.69 197.88 1027.60 197.88M1024.53 189.24L1024.53 189.91L1030.67 189.91L1030.67 189.24Q1030.67 187.68 1029.87 186.83Q1029.06 185.98 1027.60 185.98Q1026.14 185.98 1025.33 186.83Q1024.53 187.68 1024.53 189.24" fill="white" fill-opacity="0.7"/>
<path d="M1039.65 197.64L1037.49 197.64L1037.49 184.44L1039.65 184.44L1039.65 186.96L1039.70 186.96Q1039.86 185.69 1040.78 184.94Q1041.69 184.20 1043.22 184.20Q1045.29 184.20 1046.40 185.44Q1047.52 186.67 1047.52 188.95L1047.52 190.08L1045.36 190.08L1045.36 188.95Q1045.36 186.07 1042.55 186.07Q1041.14 186.07 1040.39 186.89Q1039.65 187.70 1039.65 189.24" fill="white" fill-opacity="0.7"/>
<path d="M1057.82 197.64L1054.98 197.64L1050.50 184.44L1052.82 184.44L1055.70 193.32Q1055.97 194.11 1056.16 194.84Q1056.35 195.58 1056.45 195.98Q1056.57 195.58 1056.74 194.84Q1056.90 194.11 1057.14 193.32L1060.02 184.44L1062.30 184.44" fill="white" fill-opacity="0.7"/>
<path d="M1076.92 197.64L1065.64 197.64L1065.64 195.67L1070.32 195.67L1070.32 186.41L1066.12 186.41L1066.12 184.44L1072.48 184.44L1072.48 195.67L1076.92 195.67L1076.92 197.64M1071.16 182.06Q1070.37 182.06 1069.91 181.66Q1069.46 181.25 1069.46 180.55Q1069.46 179.83 1069.91 179.41Q1070.37 178.99 1071.16 178.99Q1071.95 178.99 1072.41 179.41Q1072.86 179.83 1072.86 180.55Q1072.86 181.25 1072.41 181.66Q1071.95 182.06 1071.16 182.06" fill="white" fill-opacity="0.7"/>
<path d="M1085.39 197.88Q1082.99 197.88 1081.55 196.54Q1080.11 195.19 1080.11 192.84L1080.11 189.24Q1080.11 186.89 1081.55 185.54Q1082.99 184.20 1085.39 184.20Q1087.67 184.20 1089.08 185.42Q1090.48 186.65 1090.55 188.76L1088.39 188.76Q1088.32 187.49 1087.53 186.80Q1086.74 186.12 1085.39 186.12Q1083.98 186.12 1083.12 186.92Q1082.27 187.73 1082.27 189.22L1082.27 192.84Q1082.27 194.33 1083.12 195.14Q1083.98 195.96 1085.39 195.96Q1086.74 195.96 1087.53 195.26Q1088.32 194.57 1088.39 193.32L1090.55 193.32Q1090.48 195.43 1089.08 196.66Q1087.67 197.88 1085.39 197.88" fill="white" fill-opacity="0.7"/>
<path d="M1099.60 197.88Q1097.27 197.88 1095.84 196.48Q1094.42 195.07 1094.42 192.60L1094.42 189.48Q1094.42 187.01 1095.84 185.60Q1097.27 184.20 1099.60 184.20Q1101.16 184.20 1102.32 184.82Q1103.49 185.45 1104.14 186.58Q1104.78 187.70 1104.78 189.24L1104.78 191.59L1096.53 191.59L1096.53 192.84Q1096.53 194.30 1097.37 195.16Q1098.21 196.01 1099.60 196.01Q1100.80 196.01 1101.58 195.54Q1102.36 195.07 1102.53 194.28L1104.69 194.28Q1104.47 195.94 1103.08 196.91Q1101.69 197.88 1099.60 197.88M1096.53 189.24L1096.53 189.91L1102.67 189.91L1102.67 189.24Q1102.67 187.68 1101.87 186.83Q1101.06 185.98 1099.60 185.98Q1098.14 185.98 1097.33 186.83Q1096.53 187.68 1096.53 189.24" fill="white" fill-opacity="0.7"/>
<path d="M76.43 229.88Q74.46 229.88 73.28 228.56Q72.09 227.24 72.09 224.98L72.09 221.12Q72.09 218.84 73.26 217.52Q74.44 216.20 76.43 216.20Q77.92 216.20 78.89 216.94Q79.86 217.69 80.06 218.96L80.08 218.96L80.03 215.96L80.03 212.12L82.19 212.12L82.19 229.64L80.03 229.64L80.03 227.12L80.01 227.12Q79.84 228.42 78.88 229.15Q77.92 229.88 76.43 229.88M77.15 228.01Q78.50 228.01 79.26 227.17Q80.03 226.33 80.03 224.84L80.03 221.24Q80.03 219.75 79.26 218.91Q78.50 218.07 77.15 218.07Q75.78 218.07 75.02 218.78Q74.25 219.49 74.25 221.12L74.25 224.96Q74.25 226.57 75.02 227.29Q75.78 228.01 77.15 228.01" fill="white" fill-opacity="0.7"/>
<path d="M91.60 229.88Q89.27 229.88 87.84 228.48Q86.42 227.07 86.42 224.60L86.42 221.48Q86.42 219.01 87.84 217.60Q89.27 216.20 91.60 216.20Q93.16 216.20 94.32 216.82Q95.49 217.45 96.14 218.58Q96.78 219.70 96.78 221.24L96.78 223.59L88.53 223.59L88.53 224.84Q88.53 226.30 89.37 227.16Q90.21 228.01 91.60 228.01Q92.80 228.01 93.58 227.54Q94.36 227.07 94.53 226.28L96.69 226.28Q96.47 227.94 95.08 228.91Q93.69 229.88 91.60 229.88M88.53 221.24L88.53 221.91L94.67 221.91L94.67 221.24Q94.67 219.68 93.87 218.83Q93.06 217.98 91.60 217.98Q90.14 217.98 89.33 218.83Q88.53 219.68 88.53 221.24" fill="white" fill-opacity="0.7"/>
<path d="MNaN 229.64L107.92 229.64Q106.17 229.64 105.12 228.62Q104.08 227.60 104.08 225.92L104.08 214.09L99.52 214.09L99.52 212.12L106.24 212.12L106.24 225.92Q106.24 226.74 106.70 227.20Q107.15 227.67 107.92 227.67LNaN 227.67" fill="white" fill-opacity="0.7"/>
<path d="M126.52 229.64L115.24 229.64L115.24 227.67L119.92 227.67L119.92 218.41L115.72 218.41L115.72 216.44L122.08 216.44L122.08 227.67L126.52 227.67L126.52 229.64M120.76 214.06Q119.97 214.06 119.51 213.66Q119.06 213.25 119.06 212.55Q119.06 211.83 119.51 211.41Q119.97 210.99 120.76 210.99Q121.55 210.99 122.01 211.41Q122.46 211.83 122.46 212.55Q122.46 213.25 122.01 213.66Q121.55 214.06 120.76 214.06" fill="white" fill-opacity="0.7"/>
<path d="M136.22 229.64L133.38 229.64L128.90 216.44L131.22 216.44L134.10 225.32Q134.37 226.11 134.56 226.84Q134.75 227.58 134.85 227.98Q134.97 227.58 135.14 226.84Q135.30 226.11 135.54 225.32L138.42 216.44L140.70 216.44" fill="white" fill-opacity="0.7"/>
<path d="M149.20 229.88Q146.87 229.88 145.44 228.48Q144.02 227.07 144.02 224.60L144.02 221.48Q144.02 219.01 145.44 217.60Q146.87 216.20 149.20 216.20Q150.76 216.20 151.92 216.82Q153.09 217.45 153.74 218.58Q154.38 219.70 154.38 221.24L154.38 223.59L146.13 223.59L146.13 224.84Q146.13 226.30 146.97 227.16Q147.81 228.01 149.20 228.01Q150.40 228.01 151.18 227.54Q151.96 227.07 152.13 226.28L154.29 226.28Q154.07 227.94 152.68 228.91Q151.29 229.88 149.20 229.88M146.13 221.24L146.13 221.91L152.27 221.91L152.27 221.24Q152.27 219.68 151.47 218.83Q150.66 217.98 149.20 217.98Q147.74 217.98 146.93 218.83Q146.13 219.68 146.13 221.24" fill="white" fill-opacity="0.7"/>
<path d="M161.25 229.64L159.09 229.64L159.09 216.44L161.25 216.44L161.25 218.96L161.30 218.96Q161.46 217.69 162.38 216.94Q163.29 216.20 164.82 216.20Q166.89 216.20 168 217.44Q169.12 218.67 169.12 220.95L169.12 222.08L166.96 222.08L166.96 220.95Q166.96 218.07 164.15 218.07Q162.74 218.07 161.99 218.89Q161.25 219.70 161.25 221.24" fill="white" fill-opacity="0.7"/>
<path d="M177.33 233.96L175.07 233.96L177.02 228.82L172.10 216.44L174.42 216.44L177.54 224.60Q177.74 225.08 177.90 225.61Q178.07 226.14 178.14 226.52Q178.22 226.14 178.38 225.61Q178.55 225.08 178.72 224.60L181.62 216.44L183.90 216.44" fill="white" fill-opacity="0.7"/>
<path d="M192.40 229.88Q191.51 229.88 190.97 229.35Q190.43 228.82 190.43 227.98Q190.43 227.10 190.97 226.54Q191.51 225.99 192.40 225.99Q193.29 225.99 193.83 226.54Q194.37 227.10 194.37 227.98Q194.37 228.82 193.83 229.35Q193.29 229.88 192.40 229.88" fill="white" fill-opacity="0.7"/>
<path d="M76.11 136.06L66.42 136.06L84.56 65.98L97.14 65.98L115.18 136.06L105.49 136.06L101.07 117.82L80.53 117.82L76.11 136.06M87.54 88.92L82.45 109.95L99.15 109.95L94.16 89.02Q92.72 83.26 91.86 79.23Q90.99 75.20 90.80 73.76Q90.61 75.20 89.74 79.23Q88.88 83.26 87.54 88.92M137.55 136.06L128.05 136.06L128.05 65.98L150.80 65.98Q157.52 65.98 162.42 68.57Q167.31 71.16 170 75.82Q172.69 80.48 172.69 86.91Q172.69 93.24 170 97.90Q167.31 102.56 162.37 105.15Q157.42 107.74 150.80 107.74L137.55 107.74L137.55 136.06M137.55 74.43L137.55 99.29L150.80 99.29Q156.37 99.29 159.63 95.88Q162.90 92.48 162.90 86.91Q162.90 81.24 159.63 77.84Q156.37 74.43 150.80 74.43L137.55 74.43M225.10 136.06L186.90 136.06L186.90 127.42L201.20 127.42L201.20 74.62L186.90 74.62L186.90 65.98L225.10 65.98L225.10 74.62L210.80 74.62L210.80 127.42L225.10 127.42L225.10 136.06M263.98 137.02Q253.62 137.02 247.47 131.60Q241.33 126.17 241.33 116.67L250.83 116.67Q250.83 122.24 254.38 125.40Q257.94 128.57 263.98 128.57Q269.74 128.57 273.15 125.36Q276.56 122.14 276.56 116.76Q276.56 112.73 274.35 109.71Q272.14 106.68 268.11 105.63L257.74 102.84Q250.93 100.92 246.94 95.88Q242.96 90.84 242.96 83.93Q242.96 78.27 245.50 74Q248.05 69.72 252.66 67.37Q257.26 65.02 263.31 65.02Q269.46 65.02 274.11 67.37Q278.77 69.72 281.36 73.95Q283.95 78.17 283.95 83.74L274.54 83.74Q274.54 79.13 271.42 76.25Q268.30 73.37 263.31 73.37Q258.32 73.37 255.30 76.25Q252.27 79.13 252.27 83.74Q252.27 87.48 254.29 90.03Q256.30 92.57 259.95 93.63L270.61 96.51Q277.81 98.43 281.84 103.85Q285.87 109.28 285.87 116.76Q285.87 122.91 283.18 127.47Q280.50 132.03 275.55 134.52Q270.61 137.02 263.98 137.02M342.51 136.06L301.71 136.06L301.71 65.98L342.51 65.98L342.51 74.52L311.12 74.52L311.12 95.36L339.15 95.36L339.15 103.61L311.12 103.61L311.12 127.52L342.51 127.52L342.51 136.06M383.60 136.06L374.10 136.06L374.10 74.62L355.09 74.62L355.09 65.98L402.51 65.98L402.51 74.62L383.60 74.62L383.60 136.06M436.40 137.02Q426.51 137.02 421.18 131.55Q415.86 126.08 415.86 116.67L415.86 65.98L425.36 65.98L425.36 116.67Q425.36 122.24 428.10 125.40Q430.83 128.57 436.40 128.57Q441.87 128.57 444.70 125.40Q447.54 122.24 447.54 116.67L447.54 65.98L457.04 65.98L457.04 116.67Q457.04 126.17 451.71 131.60Q446.38 137.02 436.40 137.02M551.98 137.02Q542.29 137.02 536.58 131.60Q530.86 126.17 530.86 116.67L530.86 85.28Q530.86 75.87 536.58 70.44Q542.29 65.02 551.98 65.02Q561.58 65.02 567.30 70.49Q573.01 75.96 573.01 85.28L563.50 85.28Q563.50 79.61 560.43 76.54Q557.36 73.47 551.98 73.47Q546.51 73.47 543.44 76.54Q540.37 79.61 540.37 85.28L540.37 116.67Q540.37 122.43 543.44 125.50Q546.51 128.57 551.98 128.57Q557.36 128.57 560.43 125.50Q563.50 122.43 563.50 116.67L563.50 107.55L549.87 107.55L549.87 99.10L573.01 99.10L573.01 116.67Q573.01 126.08 567.30 131.55Q561.58 137.02 551.98 137.02M609.20 137.02Q599.60 137.02 594.03 131.45Q588.46 125.88 588.46 115.71L588.46 86.24Q588.46 76.16 594.03 70.59Q599.60 65.02 609.20 65.02Q618.80 65.02 624.37 70.54Q629.94 76.06 629.94 86.24L629.94 115.71Q629.94 125.88 624.37 131.45Q618.80 137.02 609.20 137.02M609.20 128.57Q614.58 128.57 617.50 125.50Q620.43 122.43 620.43 116.67L620.43 85.28Q620.43 79.61 617.55 76.54Q614.67 73.47 609.20 73.47Q603.73 73.47 600.85 76.54Q597.97 79.61 597.97 85.28L597.97 116.67Q597.97 122.43 600.90 125.50Q603.82 128.57 609.20 128.57M673.14 136.06L660.37 136.06L642.42 65.98L652.21 65.98L663.82 113.21Q664.98 117.72 665.79 121.90Q666.61 126.08 666.99 128.28Q667.28 126.08 668.19 121.85Q669.10 117.63 670.16 113.12L681.39 65.98L691.18 65.98L673.14 136.06M771.15 136.06L761.65 136.06L761.65 65.98L771.15 65.98L771.15 95.74L780.94 95.74L795.92 65.98L806.29 65.98L789.30 99.68L807.15 136.06L796.40 136.06L780.75 104.09L771.15 104.09L771.15 136.06M860.91 136.06L820.11 136.06L820.11 65.98L860.91 65.98L860.91 74.52L829.52 74.52L829.52 95.36L857.55 95.36L857.55 103.61L829.52 103.61L829.52 127.52L860.91 127.52L860.91 136.06M886.35 136.06L876.94 136.06L876.94 65.98L898.64 65.98Q905.07 65.98 909.87 68.52Q914.67 71.07 917.36 75.63Q920.05 80.19 920.05 86.33Q920.05 93.44 916.45 98.52Q912.85 103.61 906.90 105.72L921.01 136.06L910.54 136.06L897.20 106.78L886.35 106.78L886.35 136.06M886.35 74.43L886.35 98.33L898.64 98.33Q904.02 98.33 907.14 95.07Q910.26 91.80 910.26 86.43Q910.26 80.96 907.09 77.69Q903.92 74.43 898.64 74.43L886.35 74.43M940.11 136.06L930.42 136.06L948.56 65.98L961.14 65.98L979.18 136.06L969.49 136.06L965.07 117.82L944.53 117.82L940.11 136.06M951.54 88.92L946.45 109.95L963.15 109.95L958.16 89.02Q956.72 83.26 955.86 79.23Q954.99 75.20 954.80 73.76Q954.61 75.20 953.74 79.23Q952.88 83.26 951.54 88.92M1036.59 136.06L995.89 136.06L995.89 65.98L1005.39 65.98L1005.39 127.42L1036.59 127.42L1036.59 136.06M1055.31 136.06L1045.62 136.06L1063.76 65.98L1076.34 65.98L1094.38 136.06L1084.69 136.06L1080.27 117.82L1059.73 117.82L1055.31 136.06M1066.74 88.92L1061.65 109.95L1078.35 109.95L1073.36 89.02Q1071.92 83.26 1071.06 79.23Q1070.19 75.20 NaN 73.76Q1069.81 75.20 1068.94 79.23Q1068.08 83.26 1066.74 88.92M1116.75 136.06L1107.25 136.06L1107.25 65.98LNaN 65.98Q1136.72 65.98 1141.62 68.57Q1146.51 71.16 1149.20 75.82Q1151.89 80.48 1151.89 86.91Q1151.89 93.24 1149.20 97.90Q1146.51 102.56 1141.57 105.15Q1136.62 107.74 NaN 107.74L1116.75 107.74L1116.75 136.06M1116.75 74.43L1116.75 99.29LNaN 99.29Q1135.57 99.29 1138.83 95.88Q1142.10 92.48 1142.10 86.91Q1142.10 81.24 1138.83 77.84Q1135.57 74.43 NaN 74.43L1116.75 74.43M1185.58 137.02Q1175.22 137.02 1169.07 131.60Q1162.93 126.17 1162.93 116.67L1172.43 116.67Q1172.43 122.24 1175.98 125.40Q1179.54 128.57 1185.58 128.57Q1191.34 128.57 1194.75 125.36Q1198.16 122.14 1198.16 116.76Q1198.16 112.73 1195.95 109.71Q1193.74 106.68 1189.71 105.63L1179.34 102.84Q1172.53 100.92 1168.54 95.88Q1164.56 90.84 1164.56 83.93Q1164.56 78.27 1167.10 74Q1169.65 69.72 1174.26 67.37Q1178.86 65.02 1184.91 65.02Q1191.06 65.02 1195.71 67.37Q1200.37 69.72 1202.96 73.95Q1205.55 78.17 1205.55 83.74L1196.14 83.74Q1196.14 79.13 1193.02 76.25Q1189.90 73.37 1184.91 73.37Q1179.92 73.37 1176.90 76.25Q1173.87 79.13 1173.87 83.74Q1173.87 87.48 1175.89 90.03Q1177.90 92.57 1181.55 93.63L1192.21 96.51Q1199.41 98.43 1203.44 103.85Q1207.47 109.28 1207.47 116.76Q1207.47 122.91 1204.78 127.47Q1202.10 132.03 1197.15 134.52Q1192.21 137.02 1185.58 137.02M1243.57 137.02Q1233.87 137.02 1228.16 131.60Q1222.45 126.17 1222.45 116.67L1222.45 85.28Q1222.45 75.87 1228.16 70.44Q1233.87 65.02 1243.57 65.02Q1253.17 65.02 1258.88 70.49Q1264.59 75.96 1264.59 85.28L1255.09 85.28Q1255.09 79.61 1252.02 76.54Q1248.94 73.47 1243.57 73.47Q1238.10 73.47 1235.02 76.54Q1231.95 79.61 1231.95 85.28L1231.95 116.67Q1231.95 122.43 1235.02 125.50Q1238.10 128.57 1243.57 128.57Q1248.94 128.57 1252.02 125.50Q1255.09 122.43 1255.09 116.67L1264.59 116.67Q1264.59 126.08 1258.88 131.55Q1253.17 137.02 1243.57 137.02" fill="url(#paint2_linear_0_1)"/>
<g id="Group 1">
<rect id="Rectangle 1" x="26" y="168" width="12" height="184" rx="5" fill="url(#paint3_linear_0_1)" fill-opacity="0.9"/>
</g>
<g id="Group 1_2">
<rect id="Rectangle 2" x="26" y="38" width="12" height="119" rx="5" fill="url(#paint4_linear_0_1)" fill-opacity="0.9"/>
</g>
<ellipse id="Ellipse 1" cx="148.5" cy="573" rx="215.5" ry="214" fill="url(#paint5_linear_0_1)" fill-opacity="0.4"/>
<rect id="Rectangle 3" x="1229" y="48" width="300" height="300" rx="25" fill="#FFFBFB" fill-opacity="0.9"/>
<g id="placeholder-logo"><g transform="translate(1229,48) translate(0.0,60.0) scale(1.2000)"><g fill="#666666">
  <path d="m88.05,27.65c-3.15,4 -3.2,51.2 -0.05,54.35c2.75,2.75 71.7,3.15 74.45,0.45c2.85,-2.9 2.3,-53.85 -0.65,-55.9c-1.95,-1.35 -7.15,-1.55 -36.95,-1.55l-34.7,0l-2.1,2.65zm69.45,3.35c0.65,0 1,8.6 1,23.75l0,23.75l-33,0l-33,0l-0.25,-23c-0.15,-12.6 -0.1,-23.45 0.15,-24.1c0.35,-0.85 8.9,-1.05 32.25,-0.75c17.55,0.2 32.3,0.35 32.85,0.35z"/>
  <path d="m99.15,37.3c-6.85,7.35 4.25,17.35 11.4,10.25c1.35,-1.35 2.45,-3.65 2.45,-5.05c0,-6.45 -9.35,-9.95 -13.85,-5.2z"/>
  <path d="m135,42.5c-0.7,0.85 -5.25,5.15 -10.1,9.6l-8.85,8.1l-3.2,-3.2l-3.15,-3.15l-6.35,6.3c-5.55,5.5 -6.35,6.75 -6.35,10.05l0,3.8l28.5,0l28.5,0l0,-8.6l0,-8.55l-8.15,-7.7c-9.35,-8.85 -9.15,-8.7 -10.85,-6.65zm7.25,15.2c0.95,0.9 1.75,2.9 1.75,4.45c6.35,-5.05 4.75,-7.15 4.9,-11.55c0.95,0 0,0 0,0l-6.65,7.1z"/>
  <path d="m53.65,110.75c0.1,4.8 0.45,8.65 0.75,8.5c0.35,-0.15 1.3,-0.25 2.1,-0.25c1.1,0 1.5,-1.2 1.5,-4.75l0,-4.75l3.25,5c4.9,7.5 6.2,6.75 6.55,-3.75c0.25,-8.15 0.15,-8.75 -1.7,-8.75c-1.65,0 -2.05,0.8 -2.3,4.75l-0.3,4.75l-2.8,-4.75c-4.85,-8.25 -7.25,-6.9 -7.05,4z"/>
  <path d="m91,108.9c0,9.65 0.3,10.1 6.1,10.1c5.8,0 7.15,-2.65 1.65,-3.2l-3.25,-0.3l-0.3,-6.75c-0.25,-5.95 -0.55,-6.75 -2.25,-6.75c-1.75,0 -1.95,0.7 -1.95,6.9z"/>
  <path d="m151,102.45c0,0.25 1,2.15 2.25,4.2c1.2,2.1 2.45,5.8 2.75,8.25c0.65,5.9 4,6.95 4,1.25c0.05,-2.1 1.25,-5.85 2.95,-8.9l2.9,-5.25l-2.5,0c-1.8,0 -2.8,0.85 -3.75,3.1l-1.3,3.05l-1.25,-3.05c-1.1,-2.6 -6.05,-4.8 -6.05,-2.65z"/>
  <path d="m191,107.45c0,9.05 3.4,8.85 4.25,-0.2c0.45,-5 0.35,-5.25 -1.9,-5.25c-2.2,0 -2.35,0.4 -2.35,5.45z"/>
  <path d="m180.8,104.75c-1.3,5.35 0.65,13.6 3.45,14.35c2.3,0.6 2.75,0.4 2.75,-1.2c0,-1.05 -0.45,-1.9 -1,-1.9c-0.55,0 -1,-1.6 -1,-3.5c0,-1.95 0.45,-3.5 1,-3.5c0.55,0 1,-0.7 1,-1.5c0,-0.85 -0.45,-1.5 -1,-1.5c-0.55,0 -1,-0.7 -1,-1.5c0,-2.1 -3.65,-1.9 -4.2,0.25z"/>
  <path d="m71.55,106.55c-2.2,2.25 -2.05,9.7 0.3,11.8c4.5,4.1 10.15,0.75 10.15,-6.1c0,-4.85 -2,-7.25 -6,-7.25c-1.55,0 -3.55,0.7 -4.45,1.55zm6.25,5.8c0.25,3.05 0,3.65 -1.6,3.65c-2.3,0 -3.25,-2.65 -2.05,-5.85c1.25,-3.35 3.3,-2.1 3.65,2.2z"/>
  <path d="m105.75,106.1c-2.5,1.45 -2.45,9.95 0.1,12.25c4.3,3.9 10.15,0.35 10.15,-6.2c0,-6 -5.15,-9.05 -10.25,-6.05zm6.05,6.25c0.25,3.05 0,3.65 -1.6,3.65c-2.3,0 -3.25,-2.65 -2.05,-5.85c1.25,-3.35 3.3,-2.1 3.65,2.2z"/>
  <path d="m119.2,106.2c-3.8,3.8 -0.4,12.55 4.4,11.35c1.9,-0.45 2.45,-0.3 2.15,0.65c-0.25,0.7 -1.55,1.2 -2.85,1.1c-4.05,-0.3 -5.35,0.45 -3.85,2.25c0.85,1.05 2.6,1.45 5.35,1.25l4.1,-0.3l0.3,-8.75l0.3,-8.75l-4.35,0c-2.4,0 -4.9,0.55 -5.55,1.2zm6.6,4.45c0.4,2.85 -2.15,4.85 -3.75,2.95c-0.9,-1.1 -0.9,-2 -0.05,-3.6c1.35,-2.5 3.4,-2.15 3.8,0.65z"/>
  <path d="m133.55,106.55c-2.2,2.25 -2.05,9.7 0.3,11.8c4.5,4.1 10.15,0.75 10.15,-6.1c0,-4.85 -2,-7.25 -6,-7.25c-1.55,0 -3.55,0.7 -4.45,1.55zm6.25,5.8c0.25,3.05 0,3.65 -1.6,3.65c-2.3,0 -3.25,-2.65 -2.05,-5.85c1.25,-3.35 3.3,-2.1 3.65,2.2z"/>
  <path d="m167.65,106.85c-3.9,4.3 -0.75,13.15 4.7,13.15c2.4,0 5.65,-2.75 5.65,-4.85c0,-1.4 -2.65,-1.55 -3.5,-0.15c-0.95,1.55 -4.5,1.15 -4.5,-0.5c0,-1.1 1.1,-1.5 4,-1.5c3.15,0 4,-0.35 4,-1.8c0,-5.3 -6.85,-8.25 -10.35,-4.35z"/>
  <path d="m191,117.5c0,2.15 0.4,2.6 2.25,2.3c1.5,-0.2 2.25,-1 2.25,-2.3c0,-1.3 -0.75,-2.1 -2.25,-2.3c-1.85,-0.3 -2.25,0.15 -2.25,2.3z"/>
 </g></g></g>
</g>
<defs>
<linearGradient id="paint0_linear_0_1" x1="0" y1="198" x2="1584" y2="198" gradientUnits="userSpaceOnUse">
<stop stop-color="#3D052C"/>
<stop offset="1"/>
</linearGradient>
<linearGradient id="paint1_linear_0_1" x1="323" y1="-224" x2="323" y2="352" gradientUnits="userSpaceOnUse">
<stop stop-color="#28F6F2" stop-opacity="0.4"/>
<stop offset="1" stop-color="#17908E" stop-opacity="0.7"/>
</linearGradient>
<linearGradient id="paint2_linear_0_1" x1="148.5" y1="38" x2="148.5" y2="140" gradientUnits="userSpaceOnUse">
<stop stop-color="white"/>
<stop offset="1" stop-color="#999999"/>
</linearGradient>
<linearGradient id="paint3_linear_0_1" x1="38" y1="260" x2="26" y2="260" gradientUnits="userSpaceOnUse">
<stop stop-color="#D9D9D9"/>
<stop offset="1" stop-color="#737373"/>
</linearGradient>
<linearGradient id="paint4_linear_0_1" x1="38" y1="97.5" x2="26" y2="97.5" gradientUnits="userSpaceOnUse">
<stop stop-color="#D9D9D9"/>
<stop offset="1" stop-color="#737373"/>
</linearGradient>
<linearGradient id="paint5_linear_0_1" x1="27.5" y1="434.5" x2="148.5" y2="787" gradientUnits="userSpaceOnUse">
<stop stop-color="#2E21BC"/>
<stop offset="1" stop-color="#150F56"/>
</linearGradient>
<clipPath id="clip0_0_1">
<rect width="1584" height="396" fill="white"/>
</clipPath>
</defs>
</svg>
